<svg
    xmlns="http://www.w3.org/2000/svg"
    width="32"
    height="32"
    viewBox="0 0 24 24"
>
    <!-- <path
    fill="#888888"
    d="M3 21q-.825 0-1.412-.587T1 19V5q0-.825.588-1.412T3 3h18q.825 0 1.413.588T23 5v14q0 .825-.587 1.413T21 21zM7 9v7q0 .425.288.713T8 17t.713-.288T9 16V8q0-.425-.288-.712T8 7H6q-.425 0-.712.288T5 8t.288.713T6 9zm8.25 4.825l1.5 2.725q.125.2.325.325t.45.125q.5 0 .75-.437t0-.863L16.25 12l2.05-3.7q.25-.425-.012-.862T17.525 7q-.25 0-.45.125t-.325.325l-1.5 2.725l-1.5-2.725q-.125-.2-.325-.325T12.975 7q-.5 0-.75.438t0 .862L14.25 12l-2.05 3.7q-.25.425.013.863t.762.437q.25 0 .45-.125t.325-.325z"
    /> -->
    <symbol
    viewBox="0 0 24 24"
    id="material-symbols-1x-mobiledata-badge-rounded"
    >
    <path
        fill="#888888"
        d="M3 21q-.825 0-1.412-.587T1 19V5q0-.825.588-1.412T3 3h18q.825 0 1.413.588T23 5v14q0 .825-.587 1.413T21 21zM7 9v7q0 .425.288.713T8 17t.713-.288T9 16V8q0-.425-.288-.712T8 7H6q-.425 0-.712.288T5 8t.288.713T6 9zm8.25 4.825l1.5 2.725q.125.2.325.325t.45.125q.5 0 .75-.437t0-.863L16.25 12l2.05-3.7q.25-.425-.012-.862T17.525 7q-.25 0-.45.125t-.325.325l-1.5 2.725l-1.5-2.725q-.125-.2-.325-.325T12.975 7q-.5 0-.75.438t0 .862L14.25 12l-2.05 3.7q-.25.425.013.863t.762.437q.25 0 .45-.125t.325-.325z"
    ></path>
    </symbol>
    <symbol viewBox="0 0 24 24" id="material-symbols-clear-day-rounded"><path d="M12 5q-.425 0-.712-.288Q11 4.425 11 4V2q0-.425.288-.713Q11.575 1 12 1t.713.287Q13 1.575 13 2v2q0 .425-.287.712Q12.425 5 12 5Zm4.95 2.05q-.275-.275-.275-.688q0-.412.275-.712l1.4-1.425q.3-.3.712-.3q.413 0 .713.3q.275.275.275.7q0 .425-.275.7L18.35 7.05q-.275.275-.7.275q-.425 0-.7-.275ZM20 13q-.425 0-.712-.288Q19 12.425 19 12t.288-.713Q19.575 11 20 11h2q.425 0 .712.287q.288.288.288.713t-.288.712Q22.425 13 22 13Zm-8 10q-.425 0-.712-.288Q11 22.425 11 22v-2q0-.425.288-.712Q11.575 19 12 19t.713.288Q13 19.575 13 20v2q0 .425-.287.712Q12.425 23 12 23ZM5.65 7.05l-1.425-1.4q-.3-.3-.3-.725t.3-.7q.275-.275.7-.275q.425 0 .7.275L7.05 5.65q.275.275.275.7q0 .425-.275.7q-.3.275-.7.275q-.4 0-.7-.275Zm12.7 12.725l-1.4-1.425q-.275-.3-.275-.712q0-.413.275-.688q.275-.275.688-.275q.412 0 .712.275l1.425 1.4q.3.275.287.7q-.012.425-.287.725q-.3.3-.725.3t-.7-.3ZM2 13q-.425 0-.712-.288Q1 12.425 1 12t.288-.713Q1.575 11 2 11h2q.425 0 .713.287Q5 11.575 5 12t-.287.712Q4.425 13 4 13Zm2.225 6.775q-.275-.275-.275-.7q0-.425.275-.7L5.65 16.95q.275-.275.688-.275q.412 0 .712.275q.3.3.3.713q0 .412-.3.712l-1.4 1.4q-.3.3-.725.3t-.7-.3ZM12 18q-2.5 0-4.25-1.75T6 12q0-2.5 1.75-4.25T12 6q2.5 0 4.25 1.75T18 12q0 2.5-1.75 4.25T12 18Zm0-2q1.65 0 2.825-1.175Q16 13.65 16 12q0-1.65-1.175-2.825Q13.65 8 12 8q-1.65 0-2.825 1.175Q8 10.35 8 12q0 1.65 1.175 2.825Q10.35 16 12 16Zm0 0q-1.65 0-2.825-1.175Q8 13.65 8 12q0-1.65 1.175-2.825Q10.35 8 12 8q1.65 0 2.825 1.175Q16 10.35 16 12q0 1.65-1.175 2.825Q13.65 16 12 16Z"></path></symbol>
    <symbol viewBox="0 0 24 24" id="website-monitoring"><path fill="currentColor" d="M2 9V3h20v6h-2V5H4v4zm0 9v-7h2v5h16v-5h2v7zm0-7V9h6.6l1.475 2.875L13.425 6h1.2l1.5 3H22v2h-7.125l-.925-1.875L10.575 15h-1.2l-2-4zM1 21v-2h22v2zm11-10.5"></path></symbol>
    <symbol viewBox="0 0 24 24" id="keyword-monitoring"><path fill="currentColor" d="M10.5 7q0-.825.588-1.412T12.5 5t1.413.588T14.5 7t-.587 1.413T12.5 9t-1.412-.587T10.5 7m2 17L8 19.5l1.5-2l-1.5-2l1.5-2.125V12.2q-1.35-.8-2.175-2.162T6.5 7q0-2.5 1.75-4.25T12.5 1t4.25 1.75T18.5 7q0 1.675-.825 3.038T15.5 12.2V21zm-4-17q0 1.4.85 2.463t2.15 1.412V14l-1.025 1.45L12 17.5l-1.375 1.775L12.5 21.15l1-1v-9.275q1.3-.35 2.15-1.412T16.5 7q0-1.65-1.175-2.825T12.5 3T9.675 4.175T8.5 7"></path></symbol>
    <symbol viewBox="0 0 48 48" id="port-monitoring"><g fill="none" stroke="currentColor" stroke-linecap="round" stroke-width="4"><rect width="36" height="36" x="6" y="6" stroke-linejoin="round" rx="3"></rect><path stroke-linejoin="round" d="M19 27h10v6H19zm-5-8h20v8H14z"></path><path d="M33 19v-4m-6 4v-4m-6 4v-4m-6 4v-4"></path></g></symbol>
    <symbol viewBox="0 0 24 24" id="menu"><path fill="currentColor" d="M4 17.27v-1h16v1zm0-4.77v-1h16v1zm0-4.77v-1h16v1z"></path></symbol>
    <symbol viewBox="0 0 24 24" id="close"><path fill="currentColor" d="m6.4 18.308l-.708-.708l5.6-5.6l-5.6-5.6l.708-.708l5.6 5.6l5.6-5.6l.708.708l-5.6 5.6l5.6 5.6l-.708.708l-5.6-5.6z"></path></symbol>
    <symbol viewBox="0 0 24 24" id="star"><path fill="currentColor" d="m12 17.27l4.15 2.51c.76.46 1.69-.22 1.49-1.08l-1.1-4.72l3.67-3.18c.67-.58.31-1.68-.57-1.75l-4.83-.41l-1.89-4.46c-.34-.81-1.5-.81-1.84 0L9.19 8.63l-4.83.41c-.88.07-1.24 1.17-.57 1.75l3.67 3.18l-1.1 4.72c-.2.86.73 1.54 1.49 1.08z"></path></symbol>
    <symbol viewBox="0 0 64 64" id="facebook"><path fill="currentColor" d="M32 1C14.8 1 1 14.8 1 32s13.8 31 31 31s31-13.8 31-31S49.2 1 32 1m8.2 18.9h-3.1c-1.4 0-2.3.7-2.3 2c-.1 1.1 0 2.3 0 3.2c0 .4.1.4.4.4h4.6c.4 0 .6.1.6.6c-.1 1.8-.4 3.7-.4 5.5c0 .4-.1.4-.6.4h-3.7c-.8 0-.7-.1-.7.7v17.1c0 .6-.1.7-.7.7H28c-.6 0-.7-.1-.7-.7V32.5c0-.4-.1-.7-.6-.6H24c-.6.3-.6.1-.6-.3v-5.5c0-.4.1-.4.4-.4h2.8c.6 0 .7-.1.7-.7v-4.2c0-1.7.4-3.2 1.4-4.6c1.3-1.7 3.1-2.5 5.1-2.7c2.1-.1 4.2 0 6.3-.1c.3 0 .4.1.4.4v5.5q.15.6-.3.6"></path></symbol>
    <symbol viewBox="0 0 24 24" id="twitter"><path fill="none" stroke="currentColor" stroke-linecap="round" stroke-linejoin="round" stroke-width="1.5" d="m3 21l7.548-7.548M21 3l-7.548 7.548m0 0L8 3H3l7.548 10.452m2.904-2.904L21 21h-5l-5.452-7.548" color="currentColor"></path></symbol>
    <symbol viewBox="0 0 20 20" id="linkedin"><path fill="currentColor" d="M10 .4C4.698.4.4 4.698.4 10s4.298 9.6 9.6 9.6s9.6-4.298 9.6-9.6S15.302.4 10 .4M7.65 13.979H5.706V7.723H7.65zm-.984-7.024c-.614 0-1.011-.435-1.011-.973c0-.549.409-.971 1.036-.971s1.011.422 1.023.971c0 .538-.396.973-1.048.973m8.084 7.024h-1.944v-3.467c0-.807-.282-1.355-.985-1.355c-.537 0-.856.371-.997.728c-.052.127-.065.307-.065.486v3.607H8.814v-4.26c0-.781-.025-1.434-.051-1.996h1.689l.089.869h.039c.256-.408.883-1.01 1.932-1.01c1.279 0 2.238.857 2.238 2.699z"></path></symbol>
    <symbol viewBox="0 0 20 20" id="telegram"><path fill="currentColor" d="M10 0c5.523 0 10 4.477 10 10s-4.477 10-10 10S0 15.523 0 10S4.477 0 10 0m4.442 6c-.381.007-.966.207-3.779 1.362a485 485 0 0 0-5.907 2.512q-.72.283-.753.553c-.044.346.46.453 1.094.657c.517.166 1.213.36 1.575.368q.492.01 1.098-.4q4.139-2.76 4.273-2.789c.063-.014.15-.032.21.02c.059.052.053.15.046.177c-.05.211-2.641 2.538-2.79 2.691l-.072.072c-.55.543-1.105.898-.147 1.521c.866.563 1.37.922 2.26 1.5c.57.368 1.017.805 1.605.752c.271-.025.55-.276.693-1.026c.335-1.77.995-5.608 1.147-7.19a1.7 1.7 0 0 0-.017-.393a.42.42 0 0 0-.144-.27c-.121-.098-.309-.118-.392-.117"></path></symbol>
    <symbol viewBox="0 0 24 24" id="mail"><g fill="none" stroke="currentColor" stroke-linecap="round" stroke-linejoin="round" stroke-width="1.5" color="currentColor"><path d="m2 5l6.913 3.925c2.526 1.433 3.648 1.433 6.174 0L22 5"></path><path d="M10.5 19.5a116 116 0 0 1-1.401-.027c-3.149-.079-4.723-.118-5.854-1.255c-1.131-1.136-1.164-2.67-1.23-5.737a69 69 0 0 1 0-2.953c.066-3.067.099-4.6 1.23-5.737C4.376 2.655 5.95 2.616 9.099 2.537a115 115 0 0 1 5.802 0c3.149.079 4.723.118 5.854 1.254s1.164 2.67 1.23 5.737c.009.455.014.668.015.972"></path><path d="M19 17a1.5 1.5 0 1 1-3 0a1.5 1.5 0 0 1 3 0m0 0v.5a1.5 1.5 0 0 0 3 0V17a4.5 4.5 0 1 0-4.5 4.5"></path></g></symbol>
    <symbol viewBox="0 0 24 24" id="sms"><path fill="currentColor" d="M8 11q.425 0 .713-.288T9 10t-.288-.712T8 9t-.712.288T7 10t.288.713T8 11m4 0q.425 0 .713-.288T13 10t-.288-.712T12 9t-.712.288T11 10t.288.713T12 11m4 0q.425 0 .713-.288T17 10t-.288-.712T16 9t-.712.288T15 10t.288.713T16 11M2 22V4q0-.825.588-1.412T4 2h16q.825 0 1.413.588T22 4v12q0 .825-.587 1.413T20 18H6zm3.15-6H20V4H4v13.125zM4 16V4z"></path></symbol>
    <symbol viewBox="0 0 24 24" id="call"><path fill="currentColor" d="M20.875 22q-3.9 0-7.337-1.475q-3.438-1.475-6-4.037q-2.563-2.563-4.05-6Q2 7.05 2 3.125q-.025-.45.3-.788Q2.625 2 3.1 2H7q.45 0 .775.337q.325.338.325.813q0 1.1.15 2.075q.15.975.475 1.85q.125.275.05.562q-.075.288-.3.538l-2.5 2.5q1.075 2.2 3.05 4.175Q11 16.825 13.275 18l2.5-2.5q.225-.225.525-.3q.3-.075.6.05q.925.3 1.912.462q.988.163 2.038.163q.475 0 .813.35q.337.35.337.85V20.9q0 .45-.325.775t-.8.325Zm-5.75-3q1.125.425 2.35.675Q18.7 19.925 20 20h-.012H20v-2.15q-.775-.05-1.587-.175q-.813-.125-1.613-.375l.012.012l-.012-.012ZM20 12q0-3.35-2.325-5.675Q15.35 4 12 4V2q2.075 0 3.9.787q1.825.788 3.175 2.138q1.35 1.35 2.137 3.175Q22 9.925 22 12Zm-4 0q0-1.65-1.175-2.825Q13.65 8 12 8V6q2.5 0 4.25 1.75T18 12ZM5 8.825L6.65 7.15q-.2-.725-.338-1.525q-.137-.8-.187-1.625v.012V4h-2.1q.05 1.2.3 2.4T5 8.825Zm0 0ZM15.125 19Z"></path></symbol>
    <symbol viewBox="0 0 24 24" id="notifications"><path fill="currentColor" d="M19.29 17.29L18 16v-5c0-3.07-1.64-5.64-4.5-6.32V4c0-.83-.67-1.5-1.5-1.5s-1.5.67-1.5 1.5v.68C7.63 5.36 6 7.92 6 11v5l-1.29 1.29c-.63.63-.19 1.71.7 1.71h13.17c.9 0 1.34-1.08.71-1.71M16 17H8v-6c0-2.48 1.51-4.5 4-4.5s4 2.02 4 4.5zm-4 5c1.1 0 2-.9 2-2h-4a2 2 0 0 0 2 2"></path></symbol>
    <symbol viewBox="0 0 24 24" id="external-link"><path fill="none" stroke="currentColor" stroke-linecap="round" stroke-linejoin="round" stroke-width="2" d="M12 6H6a2 2 0 0 0-2 2v10a2 2 0 0 0 2 2h10a2 2 0 0 0 2-2v-6m-7 1l9-9m-5 0h5v5"></path></symbol>
    <symbol viewBox="0 0 16 16" id="chatbox-outline-left"><path fill="currentColor" fill-rule="evenodd" d="M11.54 14.923a1 1 0 0 0 .614-.923v-1.619H13a2 2 0 0 0 2-2v-7.38a2 2 0 0 0-2-2H3a2 2 0 0 0-2 2v7.38a2 2 0 0 0 2 2h5.09l2.362 2.331a1 1 0 0 0 1.088.211m-.386-2.542a1 1 0 0 1 1-1H13a1 1 0 0 0 1-1v-7.38a1 1 0 0 0-1-1H3a1 1 0 0 0-1 1v7.38a1 1 0 0 0 1 1h5.09a1 1 0 0 1 .702.289L11.154 14z" clip-rule="evenodd"></path></symbol>
    <symbol viewBox="0 0 515 515" id="chatbox-outline-right"><path fill="none" stroke="currentColor" stroke-linejoin="round" stroke-width="32" d="M408 64H104a56.16 56.16 0 0 0-56 56v192a56.16 56.16 0 0 0 56 56h40v80l93.72-78.14a8 8 0 0 1 5.13-1.86H408a56.16 56.16 0 0 0 56-56V120a56.16 56.16 0 0 0-56-56Z"></path></symbol>
    <symbol viewBox="0 0 14 14" id="send-message"><path fill="currentColor" fill-rule="evenodd" d="M11.821.098a1.62 1.62 0 0 1 2.077 2.076l-3.574 10.712a1.62 1.62 0 0 1-1.168 1.069a1.6 1.6 0 0 1-1.52-.434l-1.918-1.909l-2.014 1.042a.5.5 0 0 1-.73-.457l.083-3.184l7.045-5.117a.625.625 0 1 0-.735-1.012L2.203 8.088l-1.73-1.73a1.6 1.6 0 0 1-.437-1.447a1.62 1.62 0 0 1 1.069-1.238h.003L11.82.097Z" clip-rule="evenodd"></path></symbol>
</svg>