<svg xmlns="http://www.w3.org/2000/svg" width="594.2" height="310.4"><switch><g><path fill="#36D56C" d="M100.2 210.7c0 1.2-1 2.3-2.3 2.3h-.5c-1.2 0-2.3-1-2.3-2.3v-13.5c0-1.2 1-2.3 2.3-2.3h.5c1.2 0 2.3 1 2.3 2.3v13.5zm8 0c0 1.2-1 2.3-2.3 2.3h-.5c-1.2 0-2.3-1-2.3-2.3v-13.5c0-1.2 1-2.3 2.3-2.3h.5c1.2 0 2.3 1 2.3 2.3v13.5zm8 0c0 1.2-1 2.3-2.3 2.3h-.5c-1.2 0-2.3-1-2.3-2.3v-13.5c0-1.2 1-2.3 2.3-2.3h.5c1.2 0 2.3 1 2.3 2.3v13.5zm8 0c0 1.2-1 2.3-2.3 2.3h-.5c-1.2 0-2.3-1-2.3-2.3v-13.5c0-1.2 1-2.3 2.3-2.3h.5c1.2 0 2.3 1 2.3 2.3v13.5zm9 0c0 1.2-1 2.3-2.3 2.3h-.5c-1.2 0-2.3-1-2.3-2.3v-13.5c0-1.2 1-2.3 2.3-2.3h.5c1.2 0 2.3 1 2.3 2.3v13.5zm8 0c0 1.2-1 2.3-2.3 2.3h-.5c-1.2 0-2.3-1-2.3-2.3v-13.5c0-1.2 1-2.3 2.3-2.3h.5c1.2 0 2.3 1 2.3 2.3v13.5zm8 0c0 1.2-1 2.3-2.3 2.3h-.5c-1.2 0-2.3-1-2.3-2.3v-13.5c0-1.2 1-2.3 2.3-2.3h.5c1.2 0 2.3 1 2.3 2.3v13.5zm8 0c0 1.2-1 2.3-2.3 2.3h-.5c-1.2 0-2.3-1-2.3-2.3v-13.5c0-1.2 1-2.3 2.3-2.3h.5c1.2 0 2.3 1 2.3 2.3v13.5zm8 0c0 1.2-1 2.3-2.3 2.3h-.5c-1.2 0-2.3-1-2.3-2.3v-13.5c0-1.2 1-2.3 2.3-2.3h.5c1.2 0 2.3 1 2.3 2.3v13.5zm8 0c0 1.2-1 2.3-2.3 2.3h-.5c-1.2 0-2.3-1-2.3-2.3v-13.5c0-1.2 1-2.3 2.3-2.3h.5c1.2 0 2.3 1 2.3 2.3v13.5zm8 0c0 1.2-1 2.3-2.3 2.3h-.5c-1.2 0-2.3-1-2.3-2.3v-13.5c0-1.2 1-2.3 2.3-2.3h.5c1.2 0 2.3 1 2.3 2.3v13.5zm8 0c0 1.2-1 2.3-2.3 2.3h-.5c-1.2 0-2.3-1-2.3-2.3v-13.5c0-1.2 1-2.3 2.3-2.3h.5c1.2 0 2.3 1 2.3 2.3v13.5zm9 0c0 1.2-1 2.3-2.3 2.3h-.5c-1.2 0-2.3-1-2.3-2.3v-13.5c0-1.2 1-2.3 2.3-2.3h.5c1.2 0 2.3 1 2.3 2.3v13.5zm8 0c0 1.2-1 2.3-2.3 2.3h-.5c-1.2 0-2.3-1-2.3-2.3v-13.5c0-1.2 1-2.3 2.3-2.3h.5c1.2 0 2.3 1 2.3 2.3v13.5zm8 0c0 1.2-1 2.3-2.3 2.3h-.5c-1.2 0-2.3-1-2.3-2.3v-13.5c0-1.2 1-2.3 2.3-2.3h.5c1.2 0 2.3 1 2.3 2.3v13.5zm8 0c0 1.2-1 2.3-2.3 2.3h-.5c-1.2 0-2.3-1-2.3-2.3v-13.5c0-1.2 1-2.3 2.3-2.3h.5c1.2 0 2.3 1 2.3 2.3v13.5zm8 0c0 1.2-1 2.3-2.3 2.3h-.5c-1.2 0-2.3-1-2.3-2.3v-13.5c0-1.2 1-2.3 2.3-2.3h.5c1.2 0 2.3 1 2.3 2.3v13.5zm8 0c0 1.2-1 2.3-2.3 2.3h-.5c-1.2 0-2.3-1-2.3-2.3v-13.5c0-1.2 1-2.3 2.3-2.3h.5c1.2 0 2.3 1 2.3 2.3v13.5zm8 0c0 1.2-1 2.3-2.3 2.3h-.5c-1.2 0-2.3-1-2.3-2.3v-13.5c0-1.2 1-2.3 2.3-2.3h.5c1.2 0 2.3 1 2.3 2.3v13.5zm9 0c0 1.2-1 2.3-2.3 2.3h-.5c-1.2 0-2.3-1-2.3-2.3v-13.5c0-1.2 1-2.3 2.3-2.3h.5c1.2 0 2.3 1 2.3 2.3v13.5zm8 0c0 1.2-1 2.3-2.3 2.3h-.5c-1.2 0-2.3-1-2.3-2.3v-13.5c0-1.2 1-2.3 2.3-2.3h.5c1.2 0 2.3 1 2.3 2.3v13.5zm8 0c0 1.2-1 2.3-2.3 2.3h-.5c-1.2 0-2.3-1-2.3-2.3v-13.5c0-1.2 1-2.3 2.3-2.3h.5c1.2 0 2.3 1 2.3 2.3v13.5zm8 0c0 1.2-1 2.3-2.3 2.3h-.5c-1.2 0-2.3-1-2.3-2.3v-13.5c0-1.2 1-2.3 2.3-2.3h.5c1.2 0 2.3 1 2.3 2.3v13.5zm8 0c0 1.2-1 2.3-2.3 2.3h-.5c-1.2 0-2.3-1-2.3-2.3v-13.5c0-1.2 1-2.3 2.3-2.3h.5c1.2 0 2.3 1 2.3 2.3v13.5zm8 0c0 1.2-1 2.3-2.3 2.3h-.5c-1.2 0-2.3-1-2.3-2.3v-13.5c0-1.2 1-2.3 2.3-2.3h.5c1.2 0 2.3 1 2.3 2.3v13.5zm8 0c0 1.2-1 2.3-2.2 2.3h-.5c-1.2 0-2.2-1-2.2-2.3v-13.5c0-1.2 1-2.3 2.2-2.3h.5c1.2 0 2.2 1 2.2 2.3v13.5zm8 0c0 1.2-1 2.3-2.3 2.3h-.5c-1.2 0-2.3-1-2.3-2.3v-13.5c0-1.2 1-2.3 2.3-2.3h.5c1.2 0 2.3 1 2.3 2.3v13.5zm9 0c0 1.2-1 2.3-2.3 2.3h-.5c-1.2 0-2.3-1-2.3-2.3v-13.5c0-1.2 1-2.3 2.3-2.3h.5c1.2 0 2.3 1 2.3 2.3v13.5zm8 0c0 1.2-1 2.3-2.3 2.3h-.5c-1.2 0-2.3-1-2.3-2.3v-13.5c0-1.2 1-2.3 2.3-2.3h.5c1.2 0 2.3 1 2.3 2.3v13.5zm8 0c0 1.2-1 2.3-2.3 2.3h-.5c-1.2 0-2.3-1-2.3-2.3v-13.5c0-1.2 1-2.3 2.3-2.3h.5c1.2 0 2.3 1 2.3 2.3v13.5zm8 0c0 1.2-1 2.3-2.3 2.3h-.5c-1.2 0-2.3-1-2.3-2.3v-13.5c0-1.2 1-2.3 2.3-2.3h.5c1.2 0 2.3 1 2.3 2.3v13.5zm8 0c0 1.2-1 2.3-2.3 2.3h-.5c-1.2 0-2.3-1-2.3-2.3v-13.5c0-1.2 1-2.3 2.3-2.3h.5c1.2 0 2.3 1 2.3 2.3v13.5zm8 0c0 1.2-1 2.3-2.3 2.3h-.5c-1.2 0-2.3-1-2.3-2.3v-13.5c0-1.2 1-2.3 2.3-2.3h.5c1.2 0 2.3 1 2.3 2.3v13.5zm8 0c0 1.2-1 2.3-2.3 2.3h-.5c-1.2 0-2.3-1-2.3-2.3v-13.5c0-1.2 1-2.3 2.3-2.3h.5c1.2 0 2.3 1 2.3 2.3v13.5zm9 0c0 1.2-1 2.3-2.3 2.3h-.5c-1.2 0-2.3-1-2.3-2.3v-13.5c0-1.2 1-2.3 2.3-2.3h.5c1.2 0 2.3 1 2.3 2.3v13.5zm8 0c0 1.2-1 2.3-2.3 2.3h-.5c-1.2 0-2.3-1-2.3-2.3v-13.5c0-1.2 1-2.3 2.3-2.3h.5c1.2 0 2.3 1 2.3 2.3v13.5zm8 0c0 1.2-1 2.3-2.3 2.3h-.5c-1.2 0-2.3-1-2.3-2.3v-13.5c0-1.2 1-2.3 2.3-2.3h.5c1.2 0 2.3 1 2.3 2.3v13.5zm8 0c0 1.2-1 2.3-2.3 2.3h-.5c-1.2 0-2.3-1-2.3-2.3v-13.5c0-1.2 1-2.3 2.3-2.3h.5c1.2 0 2.3 1 2.3 2.3v13.5zm8 0c0 1.2-1 2.3-2.3 2.3h-.5c-1.2 0-2.3-1-2.3-2.3v-13.5c0-1.2 1-2.3 2.3-2.3h.5c1.2 0 2.3 1 2.3 2.3v13.5zm8 0c0 1.2-1 2.3-2.3 2.3h-.5c-1.2 0-2.3-1-2.3-2.3v-13.5c0-1.2 1-2.3 2.3-2.3h.5c1.2 0 2.3 1 2.3 2.3v13.5zm8 0c0 1.2-1 2.3-2.3 2.3h-.5c-1.2 0-2.3-1-2.3-2.3v-13.5c0-1.2 1-2.3 2.3-2.3h.5c1.2 0 2.3 1 2.3 2.3v13.5zm8 0c0 1.2-1 2.3-2.3 2.3h-.5c-1.2 0-2.3-1-2.3-2.3v-13.5c0-1.2 1-2.3 2.3-2.3h.5c1.2 0 2.3 1 2.3 2.3v13.5zm9 0c0 1.2-1 2.3-2.3 2.3h-.5c-1.2 0-2.3-1-2.3-2.3v-13.5c0-1.2 1-2.3 2.3-2.3h.5c1.2 0 2.3 1 2.3 2.3v13.5zm8 0c0 1.2-1 2.3-2.3 2.3h-.5c-1.2 0-2.3-1-2.3-2.3v-13.5c0-1.2 1-2.3 2.3-2.3h.5c1.2 0 2.3 1 2.3 2.3v13.5zm8 0c0 1.2-1 2.3-2.3 2.3h-.5c-1.2 0-2.3-1-2.3-2.3v-13.5c0-1.2 1-2.3 2.3-2.3h.5c1.2 0 2.3 1 2.3 2.3v13.5zm8 0c0 1.2-1 2.3-2.3 2.3h-.5c-1.2 0-2.3-1-2.3-2.3v-13.5c0-1.2 1-2.3 2.3-2.3h.5c1.2 0 2.3 1 2.3 2.3v13.5zm8 0c0 1.2-1 2.3-2.3 2.3h-.5c-1.2 0-2.3-1-2.3-2.3v-13.5c0-1.2 1-2.3 2.3-2.3h.5c1.2 0 2.3 1 2.3 2.3v13.5z"/><path fill="#DF484A" d="M482.2 210.7c0 1.2-1 2.3-2.3 2.3h-.5c-1.2 0-2.3-1-2.3-2.3v-13.5c0-1.2 1-2.3 2.3-2.3h.5c1.2 0 2.3 1 2.3 2.3v13.5z"/><path fill="#36D56C" d="M490.2 210.7c0 1.2-1 2.3-2.3 2.3h-.5c-1.2 0-2.3-1-2.3-2.3v-13.5c0-1.2 1-2.3 2.3-2.3h.5c1.2 0 2.3 1 2.3 2.3v13.5zm9 0c0 1.2-1 2.3-2.3 2.3h-.5c-1.2 0-2.3-1-2.3-2.3v-13.5c0-1.2 1-2.3 2.3-2.3h.5c1.2 0 2.3 1 2.3 2.3v13.5zm8 0c0 1.2-1 2.3-2.3 2.3h-.5c-1.2 0-2.3-1-2.3-2.3v-13.5c0-1.2 1-2.3 2.3-2.3h.5c1.2 0 2.3 1 2.3 2.3v13.5zm8 0c0 1.2-1 2.3-2.3 2.3h-.5c-1.2 0-2.3-1-2.3-2.3v-13.5c0-1.2 1-2.3 2.3-2.3h.5c1.2 0 2.3 1 2.3 2.3v13.5zm8 0c0 1.2-1 2.3-2.3 2.3h-.5c-1.2 0-2.3-1-2.3-2.3v-13.5c0-1.2 1-2.3 2.3-2.3h.5c1.2 0 2.3 1 2.3 2.3v13.5zm8 0c0 1.2-1 2.3-2.3 2.3h-.5c-1.2 0-2.3-1-2.3-2.3v-13.5c0-1.2 1-2.3 2.3-2.3h.5c1.2 0 2.3 1 2.3 2.3v13.5zm8 0c0 1.2-1 2.3-2.3 2.3h-.5c-1.2 0-2.3-1-2.3-2.3v-13.5c0-1.2 1-2.3 2.3-2.3h.5c1.2 0 2.3 1 2.3 2.3v13.5zm8 0c0 1.2-1 2.3-2.3 2.3h-.5c-1.2 0-2.3-1-2.3-2.3v-13.5c0-1.2 1-2.3 2.3-2.3h.5c1.2 0 2.3 1 2.3 2.3v13.5zm8 0c0 1.2-1 2.3-2.3 2.3h-.5c-1.2 0-2.3-1-2.3-2.3v-13.5c0-1.2 1-2.3 2.3-2.3h.5c1.2 0 2.3 1 2.3 2.3v13.5zm9 0c0 1.2-1 2.3-2.3 2.3h-.5c-1.2 0-2.3-1-2.3-2.3v-13.5c0-1.2 1-2.3 2.3-2.3h.5c1.2 0 2.3 1 2.3 2.3v13.5zm8 0c0 1.2-1 2.3-2.3 2.3h-.5c-1.2 0-2.3-1-2.3-2.3v-13.5c0-1.2 1-2.3 2.3-2.3h.5c1.2 0 2.3 1 2.3 2.3v13.5zm8 0c0 1.2-1 2.3-2.3 2.3h-.5c-1.2 0-2.3-1-2.3-2.3v-13.5c0-1.2 1-2.3 2.3-2.3h.5c1.2 0 2.3 1 2.3 2.3v13.5zm8 0c0 1.2-1 2.3-2.3 2.3h-.5c-1.2 0-2.3-1-2.3-2.3v-13.5c0-1.2 1-2.3 2.3-2.3h.5c1.2 0 2.3 1 2.3 2.3v13.5zm-488 93c0 1.2-1 2.3-2.3 2.3h-.5c-1.2 0-2.3-1-2.3-2.3v-13.5c0-1.2 1-2.3 2.3-2.3h.5c1.2 0 2.3 1 2.3 2.3v13.5zm8 0c0 1.2-1 2.3-2.3 2.3h-.5c-1.2 0-2.3-1-2.3-2.3v-13.5c0-1.2 1-2.3 2.3-2.3h.5c1.2 0 2.3 1 2.3 2.3v13.5zm8 0c0 1.2-1 2.3-2.3 2.3h-.5c-1.2 0-2.3-1-2.3-2.3v-13.5c0-1.2 1-2.3 2.3-2.3h.5c1.2 0 2.3 1 2.3 2.3v13.5zm8 0c0 1.2-1 2.3-2.3 2.3h-.5c-1.2 0-2.3-1-2.3-2.3v-13.5c0-1.2 1-2.3 2.3-2.3h.5c1.2 0 2.3 1 2.3 2.3v13.5zm9 0c0 1.2-1 2.3-2.3 2.3h-.5c-1.2 0-2.3-1-2.3-2.3v-13.5c0-1.2 1-2.3 2.3-2.3h.5c1.2 0 2.3 1 2.3 2.3v13.5zm8 0c0 1.2-1 2.3-2.3 2.3h-.5c-1.2 0-2.3-1-2.3-2.3v-13.5c0-1.2 1-2.3 2.3-2.3h.5c1.2 0 2.3 1 2.3 2.3v13.5zm8 0c0 1.2-1 2.3-2.3 2.3h-.5c-1.2 0-2.3-1-2.3-2.3v-13.5c0-1.2 1-2.3 2.3-2.3h.5c1.2 0 2.3 1 2.3 2.3v13.5zm8 0c0 1.2-1 2.3-2.3 2.3h-.5c-1.2 0-2.3-1-2.3-2.3v-13.5c0-1.2 1-2.3 2.3-2.3h.5c1.2 0 2.3 1 2.3 2.3v13.5zm8 0c0 1.2-1 2.3-2.3 2.3h-.5c-1.2 0-2.3-1-2.3-2.3v-13.5c0-1.2 1-2.3 2.3-2.3h.5c1.2 0 2.3 1 2.3 2.3v13.5zm8 0c0 1.2-1 2.3-2.3 2.3h-.5c-1.2 0-2.3-1-2.3-2.3v-13.5c0-1.2 1-2.3 2.3-2.3h.5c1.2 0 2.3 1 2.3 2.3v13.5zm8 0c0 1.2-1 2.3-2.3 2.3h-.5c-1.2 0-2.3-1-2.3-2.3v-13.5c0-1.2 1-2.3 2.3-2.3h.5c1.2 0 2.3 1 2.3 2.3v13.5zm8 0c0 1.2-1 2.3-2.3 2.3h-.5c-1.2 0-2.3-1-2.3-2.3v-13.5c0-1.2 1-2.3 2.3-2.3h.5c1.2 0 2.3 1 2.3 2.3v13.5zm9 0c0 1.2-1 2.3-2.3 2.3h-.5c-1.2 0-2.3-1-2.3-2.3v-13.5c0-1.2 1-2.3 2.3-2.3h.5c1.2 0 2.3 1 2.3 2.3v13.5zm8 0c0 1.2-1 2.3-2.3 2.3h-.5c-1.2 0-2.3-1-2.3-2.3v-13.5c0-1.2 1-2.3 2.3-2.3h.5c1.2 0 2.3 1 2.3 2.3v13.5zm8 0c0 1.2-1 2.3-2.3 2.3h-.5c-1.2 0-2.3-1-2.3-2.3v-13.5c0-1.2 1-2.3 2.3-2.3h.5c1.2 0 2.3 1 2.3 2.3v13.5zm8 0c0 1.2-1 2.3-2.3 2.3h-.5c-1.2 0-2.3-1-2.3-2.3v-13.5c0-1.2 1-2.3 2.3-2.3h.5c1.2 0 2.3 1 2.3 2.3v13.5zm8 0c0 1.2-1 2.3-2.3 2.3h-.5c-1.2 0-2.3-1-2.3-2.3v-13.5c0-1.2 1-2.3 2.3-2.3h.5c1.2 0 2.3 1 2.3 2.3v13.5zm8 0c0 1.2-1 2.3-2.3 2.3h-.5c-1.2 0-2.3-1-2.3-2.3v-13.5c0-1.2 1-2.3 2.3-2.3h.5c1.2 0 2.3 1 2.3 2.3v13.5zm8 0c0 1.2-1 2.3-2.3 2.3h-.5c-1.2 0-2.3-1-2.3-2.3v-13.5c0-1.2 1-2.3 2.3-2.3h.5c1.2 0 2.3 1 2.3 2.3v13.5zm9 0c0 1.2-1 2.3-2.3 2.3h-.5c-1.2 0-2.3-1-2.3-2.3v-13.5c0-1.2 1-2.3 2.3-2.3h.5c1.2 0 2.3 1 2.3 2.3v13.5zm8 0c0 1.2-1 2.3-2.3 2.3h-.5c-1.2 0-2.3-1-2.3-2.3v-13.5c0-1.2 1-2.3 2.3-2.3h.5c1.2 0 2.3 1 2.3 2.3v13.5zm8 0c0 1.2-1 2.3-2.3 2.3h-.5c-1.2 0-2.3-1-2.3-2.3v-13.5c0-1.2 1-2.3 2.3-2.3h.5c1.2 0 2.3 1 2.3 2.3v13.5zm8 0c0 1.2-1 2.3-2.3 2.3h-.5c-1.2 0-2.3-1-2.3-2.3v-13.5c0-1.2 1-2.3 2.3-2.3h.5c1.2 0 2.3 1 2.3 2.3v13.5zm8 0c0 1.2-1 2.3-2.3 2.3h-.5c-1.2 0-2.3-1-2.3-2.3v-13.5c0-1.2 1-2.3 2.3-2.3h.5c1.2 0 2.3 1 2.3 2.3v13.5zm8 0c0 1.2-1 2.3-2.3 2.3h-.5c-1.2 0-2.3-1-2.3-2.3v-13.5c0-1.2 1-2.3 2.3-2.3h.5c1.2 0 2.3 1 2.3 2.3v13.5zm8 0c0 1.2-1 2.3-2.2 2.3h-.5c-1.2 0-2.2-1-2.2-2.3v-13.5c0-1.2 1-2.3 2.2-2.3h.5c1.2 0 2.2 1 2.2 2.3v13.5zm8 0c0 1.2-1 2.3-2.3 2.3h-.5c-1.2 0-2.3-1-2.3-2.3v-13.5c0-1.2 1-2.3 2.3-2.3h.5c1.2 0 2.3 1 2.3 2.3v13.5zm9 0c0 1.2-1 2.3-2.3 2.3h-.5c-1.2 0-2.3-1-2.3-2.3v-13.5c0-1.2 1-2.3 2.3-2.3h.5c1.2 0 2.3 1 2.3 2.3v13.5zm8 0c0 1.2-1 2.3-2.3 2.3h-.5c-1.2 0-2.3-1-2.3-2.3v-13.5c0-1.2 1-2.3 2.3-2.3h.5c1.2 0 2.3 1 2.3 2.3v13.5zm8 0c0 1.2-1 2.3-2.3 2.3h-.5c-1.2 0-2.3-1-2.3-2.3v-13.5c0-1.2 1-2.3 2.3-2.3h.5c1.2 0 2.3 1 2.3 2.3v13.5zm8 0c0 1.2-1 2.3-2.3 2.3h-.5c-1.2 0-2.3-1-2.3-2.3v-13.5c0-1.2 1-2.3 2.3-2.3h.5c1.2 0 2.3 1 2.3 2.3v13.5zm8 0c0 1.2-1 2.3-2.3 2.3h-.5c-1.2 0-2.3-1-2.3-2.3v-13.5c0-1.2 1-2.3 2.3-2.3h.5c1.2 0 2.3 1 2.3 2.3v13.5zm8 0c0 1.2-1 2.3-2.3 2.3h-.5c-1.2 0-2.3-1-2.3-2.3v-13.5c0-1.2 1-2.3 2.3-2.3h.5c1.2 0 2.3 1 2.3 2.3v13.5zm8 0c0 1.2-1 2.3-2.3 2.3h-.5c-1.2 0-2.3-1-2.3-2.3v-13.5c0-1.2 1-2.3 2.3-2.3h.5c1.2 0 2.3 1 2.3 2.3v13.5zm9 0c0 1.2-1 2.3-2.3 2.3h-.5c-1.2 0-2.3-1-2.3-2.3v-13.5c0-1.2 1-2.3 2.3-2.3h.5c1.2 0 2.3 1 2.3 2.3v13.5zm8 0c0 1.2-1 2.3-2.3 2.3h-.5c-1.2 0-2.3-1-2.3-2.3v-13.5c0-1.2 1-2.3 2.3-2.3h.5c1.2 0 2.3 1 2.3 2.3v13.5zm8 0c0 1.2-1 2.3-2.3 2.3h-.5c-1.2 0-2.3-1-2.3-2.3v-13.5c0-1.2 1-2.3 2.3-2.3h.5c1.2 0 2.3 1 2.3 2.3v13.5zm8 0c0 1.2-1 2.3-2.3 2.3h-.5c-1.2 0-2.3-1-2.3-2.3v-13.5c0-1.2 1-2.3 2.3-2.3h.5c1.2 0 2.3 1 2.3 2.3v13.5zm8 0c0 1.2-1 2.3-2.3 2.3h-.5c-1.2 0-2.3-1-2.3-2.3v-13.5c0-1.2 1-2.3 2.3-2.3h.5c1.2 0 2.3 1 2.3 2.3v13.5zm8 0c0 1.2-1 2.3-2.3 2.3h-.5c-1.2 0-2.3-1-2.3-2.3v-13.5c0-1.2 1-2.3 2.3-2.3h.5c1.2 0 2.3 1 2.3 2.3v13.5zm8 0c0 1.2-1 2.3-2.3 2.3h-.5c-1.2 0-2.3-1-2.3-2.3v-13.5c0-1.2 1-2.3 2.3-2.3h.5c1.2 0 2.3 1 2.3 2.3v13.5zm8 0c0 1.2-1 2.3-2.3 2.3h-.5c-1.2 0-2.3-1-2.3-2.3v-13.5c0-1.2 1-2.3 2.3-2.3h.5c1.2 0 2.3 1 2.3 2.3v13.5zm9 0c0 1.2-1 2.3-2.3 2.3h-.5c-1.2 0-2.3-1-2.3-2.3v-13.5c0-1.2 1-2.3 2.3-2.3h.5c1.2 0 2.3 1 2.3 2.3v13.5zm8 0c0 1.2-1 2.3-2.3 2.3h-.5c-1.2 0-2.3-1-2.3-2.3v-13.5c0-1.2 1-2.3 2.3-2.3h.5c1.2 0 2.3 1 2.3 2.3v13.5zm8 0c0 1.2-1 2.3-2.3 2.3h-.5c-1.2 0-2.3-1-2.3-2.3v-13.5c0-1.2 1-2.3 2.3-2.3h.5c1.2 0 2.3 1 2.3 2.3v13.5zm8 0c0 1.2-1 2.3-2.3 2.3h-.5c-1.2 0-2.3-1-2.3-2.3v-13.5c0-1.2 1-2.3 2.3-2.3h.5c1.2 0 2.3 1 2.3 2.3v13.5zm8 0c0 1.2-1 2.3-2.3 2.3h-.5c-1.2 0-2.3-1-2.3-2.3v-13.5c0-1.2 1-2.3 2.3-2.3h.5c1.2 0 2.3 1 2.3 2.3v13.5zm8 0c0 1.2-1 2.3-2.3 2.3h-.5c-1.2 0-2.3-1-2.3-2.3v-13.5c0-1.2 1-2.3 2.3-2.3h.5c1.2 0 2.3 1 2.3 2.3v13.5zm8 0c0 1.2-1 2.3-2.3 2.3h-.5c-1.2 0-2.3-1-2.3-2.3v-13.5c0-1.2 1-2.3 2.3-2.3h.5c1.2 0 2.3 1 2.3 2.3v13.5zm9 0c0 1.2-1 2.3-2.3 2.3h-.5c-1.2 0-2.3-1-2.3-2.3v-13.5c0-1.2 1-2.3 2.3-2.3h.5c1.2 0 2.3 1 2.3 2.3v13.5zm8 0c0 1.2-1 2.3-2.3 2.3h-.5c-1.2 0-2.3-1-2.3-2.3v-13.5c0-1.2 1-2.3 2.3-2.3h.5c1.2 0 2.3 1 2.3 2.3v13.5zm8 0c0 1.2-1 2.3-2.3 2.3h-.5c-1.2 0-2.3-1-2.3-2.3v-13.5c0-1.2 1-2.3 2.3-2.3h.5c1.2 0 2.3 1 2.3 2.3v13.5zm8 0c0 1.2-1 2.3-2.3 2.3h-.5c-1.2 0-2.3-1-2.3-2.3v-13.5c0-1.2 1-2.3 2.3-2.3h.5c1.2 0 2.3 1 2.3 2.3v13.5zm8 0c0 1.2-1 2.3-2.3 2.3h-.5c-1.2 0-2.3-1-2.3-2.3v-13.5c0-1.2 1-2.3 2.3-2.3h.5c1.2 0 2.3 1 2.3 2.3v13.5zm8 0c0 1.2-1 2.3-2.3 2.3h-.5c-1.2 0-2.3-1-2.3-2.3v-13.5c0-1.2 1-2.3 2.3-2.3h.5c1.2 0 2.3 1 2.3 2.3v13.5zm8 0c0 1.2-1 2.3-2.3 2.3h-.5c-1.2 0-2.3-1-2.3-2.3v-13.5c0-1.2 1-2.3 2.3-2.3h.5c1.2 0 2.3 1 2.3 2.3v13.5zm8 0c0 1.2-1 2.3-2.3 2.3h-.5c-1.2 0-2.3-1-2.3-2.3v-13.5c0-1.2 1-2.3 2.3-2.3h.5c1.2 0 2.3 1 2.3 2.3v13.5zm9 0c0 1.2-1 2.3-2.3 2.3h-.5c-1.2 0-2.3-1-2.3-2.3v-13.5c0-1.2 1-2.3 2.3-2.3h.5c1.2 0 2.3 1 2.3 2.3v13.5zm8 0c0 1.2-1 2.3-2.3 2.3h-.5c-1.2 0-2.3-1-2.3-2.3v-13.5c0-1.2 1-2.3 2.3-2.3h.5c1.2 0 2.3 1 2.3 2.3v13.5zm8 0c0 1.2-1 2.3-2.3 2.3h-.5c-1.2 0-2.3-1-2.3-2.3v-13.5c0-1.2 1-2.3 2.3-2.3h.5c1.2 0 2.3 1 2.3 2.3v13.5zm8 0c0 1.2-1 2.3-2.3 2.3h-.5c-1.2 0-2.3-1-2.3-2.3v-13.5c0-1.2 1-2.3 2.3-2.3h.5c1.2 0 2.3 1 2.3 2.3v13.5z"/><path d="M10.3 172.9v7.8c0 1.3-.4 2.3-1.2 3.1-.8.8-1.9 1.1-3.3 1.1s-2.5-.4-3.3-1.1c-.8-.7-1.2-1.7-1.3-3v-7.9h2.5v7.9c0 .8.2 1.3.6 1.7.4.4.9.5 1.5.5 1.4 0 2.1-.7 2.1-2.2v-7.9h2.4zm9.9 7.6c0 1.4-.3 2.5-.9 3.3-.6.8-1.5 1.2-2.5 1.2-.9 0-1.6-.3-2.2-.9v4.2h-2.4V176h2.2l.1.9c.6-.7 1.3-1 2.2-1 1.1 0 1.9.4 2.5 1.2.6.8.9 1.9.9 3.3v.1h.1zm-2.4-.2c0-.8-.1-1.5-.4-1.9-.3-.4-.7-.7-1.3-.7-.7 0-1.3.3-1.5.9v3.6c.3.6.8.9 1.5.9 1.1 0 1.7-.9 1.7-2.8zm6.7-6.5v2.2H26v1.7h-1.5v4.4c0 .3.1.6.2.7.1.1.4.2.7.2.3 0 .5 0 .7-.1v1.8c-.5.1-.9.2-1.4.2-1.7 0-2.5-.8-2.5-2.5v-4.8h-1.3V176h1.3v-2.2h2.3zm2.8-.1c0-.4.1-.6.4-.9.2-.2.6-.3 1-.3s.7.1 1 .3c.2.2.4.5.4.9s-.1.7-.4.9c-.2.2-.6.3-1 .3s-.7-.1-1-.3c-.3-.3-.4-.6-.4-.9zm2.5 11.1h-2.4V176h2.4v8.8zm4.1-8.8l.1 1c.6-.8 1.5-1.2 2.5-1.2 1.1 0 1.9.5 2.3 1.3.6-.9 1.5-1.3 2.7-1.3 1 0 1.7.3 2.1.8.5.6.7 1.4.7 2.5v5.7H42v-5.7c0-.5-.1-.9-.3-1.1-.2-.2-.5-.3-1-.3-.7 0-1.2.3-1.5 1v6.1h-2.4v-5.6c0-.5-.1-.9-.3-1.1-.2-.2-.5-.3-1-.3-.7 0-1.2.3-1.5.8v6.3h-2.4V176h2.3zm16.4 9c-1.3 0-2.4-.4-3.2-1.2-.8-.8-1.2-1.9-1.2-3.2v-.2c0-.9.2-1.7.5-2.4s.8-1.2 1.5-1.6c.6-.4 1.3-.6 2.2-.6 1.2 0 2.2.4 2.9 1.1.7.8 1 1.8 1 3.2v1h-5.6c.1.6.3 1 .7 1.4.4.3.9.5 1.5.5.9 0 1.6-.3 2.1-1l1.2 1.3c-.4.5-.8.9-1.4 1.2-.8.3-1.5.5-2.2.5zm-.3-7.3c-.5 0-.8.2-1.1.5-.3.3-.5.8-.6 1.4h3.3v-.2c0-.5-.2-.9-.4-1.2-.3-.3-.7-.5-1.2-.5zm14 2.8h-2v4.4h-2.5V173H64c1.4 0 2.5.3 3.3.9.8.6 1.1 1.5 1.1 2.7 0 .8-.2 1.5-.5 2-.4.5-.9 1-1.6 1.3l2.6 4.9v.1h-2.6l-2.3-4.4zm-1.9-2h2c.6 0 1.1-.2 1.4-.5s.5-.7.5-1.3-.2-1-.5-1.3-.8-.5-1.5-.5h-2l.1 3.6zm7.7 1.8c0-.9.2-1.7.5-2.3.3-.7.8-1.2 1.5-1.6.6-.4 1.4-.6 2.2-.6 1.2 0 2.2.4 2.9 1.1.8.7 1.2 1.7 1.3 3v.6c0 1.4-.4 2.4-1.1 3.3-.7.9-1.8 1.2-3 1.2-1.3 0-2.3-.4-3.1-1.2-.8-.8-1.1-1.9-1.1-3.3l-.1-.2zm2.3.2c0 .8.2 1.5.5 1.9.3.4.8.7 1.4.7.6 0 1-.2 1.3-.7.3-.4.5-1.1.5-2.1 0-.8-.2-1.5-.5-1.9-.3-.5-.8-.7-1.4-.7-.6 0-1 .2-1.3.7-.3.4-.5 1.1-.5 2.1zm15.5 0c0 1.4-.3 2.5-.9 3.3-.6.8-1.5 1.2-2.5 1.2s-1.7-.4-2.3-1.1l-.1.9h-2.1v-12.6H82v4.5c.5-.6 1.3-1 2.2-1 1.1 0 1.9.4 2.5 1.2.6.8.9 1.9.9 3.3v.3zm-2.4-.2c0-.9-.1-1.6-.4-2-.3-.4-.7-.6-1.3-.6-.8 0-1.3.3-1.6.9v3.5c.3.6.8.9 1.6.9s1.3-.4 1.5-1.1c.2-.3.2-.9.2-1.6zm3.5 0c0-.9.2-1.7.5-2.3.3-.7.8-1.2 1.5-1.6.6-.4 1.4-.6 2.2-.6 1.2 0 2.2.4 2.9 1.1s1.2 1.7 1.3 3v.6c0 1.4-.4 2.4-1.1 3.3-.7.9-1.8 1.2-3 1.2s-2.3-.4-3.1-1.2c-.8-.8-1.1-1.9-1.1-3.3l-.1-.2zm2.3.2c0 .8.2 1.5.5 1.9.3.4.8.7 1.4.7.6 0 1-.2 1.3-.7.3-.4.5-1.1.5-2.1 0-.8-.2-1.5-.5-1.9-.3-.5-.8-.7-1.4-.7s-1 .2-1.3.7-.5 1.1-.5 2.1zm10.3-6.7v2.2h1.5v1.7h-1.5v4.4c0 .3.1.6.2.7.1.1.4.2.7.2.3 0 .5 0 .7-.1v1.8c-.5.1-.9.2-1.4.2-1.7 0-2.5-.8-2.5-2.5v-4.8h-1.3V176H99v-2.2h2.3zm16.5 7.6l1.6-8.5h2.4l-2.6 11.9h-2.5l-1.9-8-1.9 8h-2.5l-2.6-11.9h2.4l1.6 8.5 2-8.5h2.1l1.9 8.5zm9 3.6c-1.3 0-2.4-.4-3.2-1.2-.8-.8-1.2-1.9-1.2-3.2v-.2c0-.9.2-1.7.5-2.4s.8-1.2 1.5-1.6c.6-.4 1.3-.6 2.2-.6 1.2 0 2.2.4 2.9 1.1.7.8 1 1.8 1 3.2v1h-5.6c.1.6.3 1 .7 1.4.4.3.9.5 1.5.5.9 0 1.6-.3 2.1-1l1.2 1.3c-.4.5-.8.9-1.4 1.2-.8.3-1.5.5-2.2.5zm-.3-7.3c-.5 0-.8.2-1.1.5-.3.3-.5.8-.6 1.4h3.3v-.2c0-.5-.2-.9-.4-1.2-.3-.3-.7-.5-1.2-.5zm13.3 2.8c0 1.4-.3 2.5-.9 3.3-.6.8-1.5 1.2-2.5 1.2s-1.7-.4-2.3-1.1l-.1.9h-2.1v-12.6h2.4v4.5c.5-.6 1.3-1 2.2-1 1.1 0 1.9.4 2.5 1.2.6.8.9 1.9.9 3.3l-.1.3zm-2.4-.2c0-.9-.1-1.6-.4-2-.3-.4-.7-.6-1.3-.6-.8 0-1.3.3-1.6.9v3.5c.3.6.8.9 1.6.9s1.3-.4 1.5-1.1c.1-.3.2-.9.2-1.6zm8.6 2.1c0-.3-.1-.5-.4-.7s-.7-.3-1.4-.4c-2.1-.4-3.2-1.3-3.2-2.7 0-.8.3-1.4 1-2 .7-.6 1.5-.8 2.6-.8s2 .3 2.7.8 1 1.2 1 2.1h-2.4c0-.3-.1-.6-.3-.8s-.6-.3-1-.3-.7.1-.9.3c-.2.2-.3.4-.3.7 0 .3.1.5.4.6.2.2.7.3 1.3.4.6.1 1.1.2 1.5.4 1.2.5 1.9 1.3 1.9 2.4 0 .8-.3 1.5-1 2s-1.6.7-2.7.7c-.7 0-1.4-.1-2-.4s-1-.6-1.4-1.1c-.3-.5-.5-1-.5-1.5h2.2c0 .4.2.7.5 1 .3.3.7.3 1.2.3s.8-.1 1-.3c.2-.2.2-.4.2-.7zm3.8-8.7c0-.4.1-.6.4-.9.2-.2.6-.3 1-.3s.7.1 1 .3c.2.2.4.5.4.9s-.1.7-.4.9c-.2.2-.6.3-1 .3s-.7-.1-1-.3c-.3-.3-.4-.6-.4-.9zm2.5 11.1h-2.4V176h2.4v8.8zm4.8-11v2.2h1.5v1.7h-1.5v4.4c0 .3.1.6.2.7.1.1.4.2.7.2s.5 0 .7-.1v1.8c-.5.1-.9.2-1.4.2-1.7 0-2.5-.8-2.5-2.5v-4.8h-1.3V176h1.3v-2.2h2.3zM164 185c-1.3 0-2.4-.4-3.2-1.2-.8-.8-1.2-1.9-1.2-3.2v-.2c0-.9.2-1.7.5-2.4s.8-1.2 1.5-1.6c.6-.4 1.3-.6 2.2-.6 1.2 0 2.2.4 2.9 1.1.7.8 1 1.8 1 3.2v1H162c.1.6.3 1 .7 1.4.4.3.9.5 1.5.5.9 0 1.6-.3 2.1-1l1.2 1.3c-.4.5-.8.9-1.4 1.2-.7.3-1.4.5-2.1.5zm-.3-7.3c-.5 0-.8.2-1.1.5s-.5.8-.6 1.4h3.3v-.2c0-.5-.2-.9-.4-1.2-.3-.3-.7-.5-1.2-.5z" fill="#738199"/><path d="M533.9 180.8c0 .8-.1 1.6-.4 2.2-.3.6-.7 1.1-1.3 1.5-.6.4-1.2.5-1.9.5s-1.3-.2-1.9-.5c-.6-.3-1-.8-1.3-1.5s-.5-1.4-.5-2.2v-.4c0-.8.2-1.6.5-2.2s.7-1.1 1.3-1.5 1.2-.5 1.9-.5 1.3.2 1.9.5c.6.3 1 .8 1.3 1.5.3.7.5 1.4.5 2.2v.4h-.1zm-1.8-.4c0-.9-.2-1.6-.5-2-.3-.4-.8-.7-1.4-.7-.6 0-1 .2-1.4.7-.4.5-.5 1.1-.5 2v.4c0 .9.2 1.5.5 2s.8.7 1.4.7c.6 0 1-.2 1.4-.7s.5-1.1.5-2v-.4zm8.6 1.3c0 1-.2 1.8-.7 2.3s-1 .9-1.8.9c-.6 0-1.2-.2-1.6-.7v3H535v-8.8h1.6l.1.6c.4-.5.9-.7 1.6-.7.8 0 1.4.3 1.8.9.4.6.6 1.4.6 2.5zm-1.7-.1c0-.6-.1-1-.3-1.4-.2-.4-.5-.5-.9-.5-.5 0-.9.2-1.1.6v2.6c.2.4.6.6 1.1.6.8.1 1.2-.6 1.2-1.9zm5.7 3.3c-.9 0-1.7-.3-2.3-.9-.6-.6-.9-1.3-.9-2.3v-.2c0-.6.1-1.2.4-1.7s.6-.9 1-1.2c.4-.3 1-.4 1.5-.4.9 0 1.5.3 2 .8s.7 1.3.7 2.3v.7h-4c.1.4.2.7.5 1s.6.4 1 .4c.7 0 1.2-.2 1.5-.7l.8.9c-.3.4-.6.6-1 .8-.4.2-.7.5-1.2.5zm-.2-5.2c-.3 0-.6.1-.8.3-.2.2-.3.6-.4 1h2.4v-.1c0-.4-.1-.7-.3-.9s-.5-.3-.9-.3zm7.3.4h-.6c-.6 0-1.1.2-1.3.7v4.1h-1.7v-6.3h1.6v.8c.3-.6.8-.9 1.4-.9.2 0 .4 0 .5.1l.1 1.5zm4.3 4.7c-.1-.2-.1-.3-.2-.6-.4.5-.9.7-1.6.7-.6 0-1.1-.2-1.5-.5-.4-.3-.6-.8-.6-1.4 0-.7.2-1.2.7-1.5s1.2-.5 2.2-.5h.8v-.4c0-.3-.1-.5-.2-.7-.1-.2-.4-.3-.7-.3-.3 0-.5.1-.7.2-.2.1-.2.3-.2.6h-1.7c0-.4.1-.7.3-1s.5-.6 1-.7.9-.3 1.4-.3c.8 0 1.4.2 1.9.6.5.4.7.9.7 1.7v2.7c0 .6.1 1.1.3 1.4v.1h-1.9v-.1zm-1.4-1.2c.3 0 .5-.1.7-.2.2-.1.4-.3.5-.4v-1.1h-.6c-.8 0-1.3.3-1.4.9v.1c0 .2.1.4.2.5.1.1.4.2.6.2zm6.2-6.7v1.6h1.1v1.2h-1.1v3.2c0 .2 0 .4.1.5.1.1.3.2.5.2h.5v1.3c-.3.1-.7.2-1 .2-1.2 0-1.8-.6-1.8-1.8v-3.4h-.9v-1.2h.9v-1.6h1.7v-.2zm2-.1c0-.3.1-.5.3-.6.2-.1.4-.2.7-.2s.5.1.7.2.3.4.3.6c0 .3-.1.5-.3.6-.2.1-.4.2-.7.2s-.5-.1-.7-.2c-.2-.1-.3-.3-.3-.6zm1.8 8H563v-6.3h1.7v6.3zm1.2-3.2c0-.6.1-1.2.4-1.7s.6-.9 1-1.1c.4-.2 1-.4 1.6-.4.9 0 1.6.3 2.1.8s.8 1.2.9 2.1v.4c0 1-.3 1.8-.8 2.3s-1.3.9-2.2.9c-.9 0-1.6-.3-2.2-.9-.6-.6-.8-1.3-.8-2.4zm1.7.1c0 .6.1 1.1.3 1.4.2.3.6.5 1 .5s.7-.2 1-.5c.2-.3.3-.8.3-1.5 0-.6-.1-1-.3-1.4-.2-.3-.6-.5-1-.5s-.7.2-1 .5c-.2.3-.3.8-.3 1.5zm6.9-3.2l.1.7c.5-.6 1.1-.8 1.8-.8s1.2.2 1.5.6c.3.4.5 1 .5 1.8v4.1h-1.7v-4.1c0-.4-.1-.6-.2-.8-.2-.2-.4-.2-.8-.2-.5 0-.8.2-1.1.6v4.5h-1.7v-6.3h1.6v-.1zm8.8 6.3c-.1-.2-.1-.3-.2-.6-.4.5-.9.7-1.6.7-.6 0-1.1-.2-1.5-.5-.4-.3-.6-.8-.6-1.4 0-.7.2-1.2.7-1.5s1.2-.5 2.2-.5h.8v-.4c0-.3-.1-.5-.2-.7-.1-.2-.4-.3-.7-.3-.3 0-.5.1-.7.2-.2.1-.2.3-.2.6h-1.7c0-.4.1-.7.3-1s.5-.6 1-.7.9-.3 1.4-.3c.8 0 1.4.2 1.9.6.5.4.7.9.7 1.7v2.7c0 .6.1 1.1.3 1.4v.1h-1.9v-.1zm-1.4-1.2c.3 0 .5-.1.7-.2.2-.1.4-.3.5-.4v-1.1h-.6c-.8 0-1.3.3-1.4.9v.1c0 .2.1.4.2.5.1.1.4.2.6.2zm6 1.2h-1.7v-9h1.7v9z" fill="#36D56C"/><path d="M4.5 265.7l3.1 8.6 3-8.6h3.2v11.9h-2.5v-3.3l.2-5.6-3.2 8.9H6.7l-3.2-8.9.2 5.6v3.3H1.3v-11.9h3.2zm11 7.4c0-.9.2-1.7.5-2.3.3-.7.8-1.2 1.5-1.6.6-.4 1.4-.6 2.2-.6 1.2 0 2.2.4 2.9 1.1.8.7 1.2 1.7 1.3 3v.6c0 1.4-.4 2.4-1.1 3.3-.7.9-1.8 1.2-3 1.2-1.3 0-2.3-.4-3.1-1.2-.8-.8-1.1-1.9-1.1-3.3l-.1-.2zm2.3.1c0 .8.2 1.5.5 1.9.3.4.8.7 1.4.7.6 0 1-.2 1.3-.7.3-.4.5-1.1.5-2.1 0-.8-.2-1.5-.5-1.9-.3-.5-.8-.7-1.4-.7-.6 0-1 .2-1.3.7s-.5 1.2-.5 2.1zm9.7-4.5l.1 1c.6-.8 1.5-1.2 2.5-1.2.9 0 1.6.3 2.1.8s.7 1.4.7 2.5v5.7h-2.4v-5.7c0-.5-.1-.9-.3-1.1-.2-.2-.6-.3-1.1-.3-.7 0-1.2.3-1.5.9v6.3h-2.4v-8.8l2.3-.1zm7.2-2.3c0-.4.1-.6.4-.9.2-.2.6-.3 1-.3s.7.1 1 .3c.2.2.4.5.4.9s-.1.7-.4.9c-.2.2-.6.3-1 .3s-.7-.1-1-.3c-.3-.2-.4-.5-.4-.9zm2.5 11.2h-2.4v-8.8h2.4v8.8zm4.8-11v2.2h1.5v1.7H42v4.4c0 .3.1.6.2.7.1.1.4.2.7.2.3 0 .5 0 .7-.1v1.8c-.5.1-.9.2-1.4.2-1.7 0-2.5-.8-2.5-2.5v-4.8h-1.3v-1.7h1.3v-2.2H42v.1zm2.2 6.5c0-.9.2-1.7.5-2.3.3-.7.8-1.2 1.5-1.6.6-.4 1.4-.6 2.2-.6 1.2 0 2.2.4 2.9 1.1.8.7 1.2 1.7 1.3 3v.6c0 1.4-.4 2.4-1.1 3.3-.7.9-1.8 1.2-3 1.2-1.3 0-2.3-.4-3.1-1.2-.8-.8-1.1-1.9-1.1-3.3l-.1-.2zm2.3.1c0 .8.2 1.5.5 1.9.3.4.8.7 1.4.7.6 0 1-.2 1.3-.7.3-.4.5-1.1.5-2.1 0-.8-.2-1.5-.5-1.9-.3-.5-.8-.7-1.4-.7s-1 .2-1.3.7-.5 1.2-.5 2.1zm12.5-2.3c-.3 0-.6-.1-.9-.1-.9 0-1.5.3-1.8.9v5.8H54v-8.8h2.2l.1 1.1c.5-.8 1.1-1.2 2-1.2.3 0 .5 0 .7.1v2.2zm1.1-4.5c0-.4.1-.6.4-.9.2-.2.6-.3 1-.3s.7.1 1 .3c.2.2.4.5.4.9s-.1.7-.4.9c-.2.2-.6.3-1 .3s-.7-.1-1-.3c-.3-.2-.4-.5-.4-.9zm2.5 11.2h-2.4v-8.8h2.4v8.8zm4.1-8.9l.1 1c.6-.8 1.5-1.2 2.5-1.2.9 0 1.6.3 2.1.8s.7 1.4.7 2.5v5.7h-2.4v-5.7c0-.5-.1-.9-.3-1.1-.2-.2-.6-.3-1.1-.3-.7 0-1.2.3-1.5.9v6.3h-2.4v-8.8l2.3-.1zm6.9 4.4c0-1.4.3-2.5 1-3.3.6-.8 1.5-1.2 2.6-1.2 1 0 1.7.3 2.3 1l.1-.8h2.1v8.6c0 .8-.2 1.4-.5 2-.4.6-.8 1-1.5 1.3-.7.3-1.4.5-2.2.5-.6 0-1.3-.1-1.9-.4-.6-.3-1.1-.6-1.4-1l1-1.4c.6.7 1.3 1 2.1 1 .6 0 1.1-.2 1.5-.5.3-.3.5-.8.5-1.4v-.5c-.5.6-1.3.9-2.2.9-1.1 0-1.9-.4-2.6-1.2-.6-1-.9-2.1-.9-3.6zm2.4.2c0 .8.2 1.4.5 1.9s.8.7 1.3.7c.7 0 1.2-.3 1.5-.8v-3.7c-.3-.5-.8-.8-1.5-.8-.6 0-1 .2-1.3.7s-.5 1-.5 2zm18.6 1.8h-4.3l-.8 2.5h-2.6l4.4-11.9h2.3l4.5 11.9h-2.6l-.9-2.5zm-3.7-2h3l-1.5-4.5-1.5 4.5zm10.7.3v4.2h-2.5v-11.9h4.6c.9 0 1.7.2 2.4.5s1.2.8 1.6 1.4c.4.6.5 1.3.5 2.1 0 1.2-.4 2.1-1.2 2.8s-1.9 1-3.3 1l-2.1-.1zm0-2h2.2c.6 0 1.1-.2 1.5-.5.3-.3.5-.7.5-1.3 0-.6-.2-1.1-.5-1.4s-.8-.5-1.4-.6h-2.2v3.8h-.1zm10.9 6.2H110v-11.9h2.5v11.9z" fill="#738199"/><path d="M533.9 273.5c0 .8-.1 1.6-.4 2.2-.3.6-.7 1.1-1.3 1.5-.6.4-1.2.5-1.9.5s-1.3-.2-1.9-.5c-.6-.3-1-.8-1.3-1.5s-.5-1.4-.5-2.2v-.4c0-.8.2-1.6.5-2.2.3-.6.7-1.1 1.3-1.5.6-.4 1.2-.5 1.9-.5s1.3.2 1.9.5c.6.3 1 .8 1.3 1.5.3.7.5 1.4.5 2.2v.4h-.1zm-1.8-.4c0-.9-.2-1.6-.5-2-.3-.4-.8-.7-1.4-.7-.6 0-1 .2-1.4.7-.4.5-.5 1.1-.5 2v.4c0 .9.2 1.5.5 2s.8.7 1.4.7c.6 0 1-.2 1.4-.7s.5-1.1.5-2v-.4zm8.6 1.4c0 1-.2 1.8-.7 2.3s-1 .9-1.8.9c-.6 0-1.2-.2-1.6-.7v3H535v-8.8h1.6l.1.6c.4-.5.9-.7 1.6-.7.8 0 1.4.3 1.8.9.4.6.6 1.4.6 2.5zm-1.7-.2c0-.6-.1-1-.3-1.4-.2-.4-.5-.5-.9-.5-.5 0-.9.2-1.1.6v2.6c.2.4.6.6 1.1.6.8.1 1.2-.5 1.2-1.9zm5.7 3.4c-.9 0-1.7-.3-2.3-.9-.6-.6-.9-1.3-.9-2.3v-.2c0-.6.1-1.2.4-1.7s.6-.9 1-1.2c.4-.3 1-.4 1.5-.4.9 0 1.5.3 2 .8s.7 1.3.7 2.3v.7h-4c.1.4.2.7.5 1 .3.3.6.4 1 .4.7 0 1.2-.2 1.5-.7l.8.9c-.3.4-.6.6-1 .8-.4.2-.7.5-1.2.5zm-.2-5.2c-.3 0-.6.1-.8.3-.2.2-.3.6-.4 1h2.4v-.1c0-.4-.1-.7-.3-.9-.2-.2-.5-.3-.9-.3zm7.3.3h-.6c-.6 0-1.1.2-1.3.7v4.1h-1.7v-6.3h1.6v.8c.3-.6.8-.9 1.4-.9.2 0 .4 0 .5.1l.1 1.5zm4.3 4.8c-.1-.2-.1-.3-.2-.6-.4.5-.9.7-1.6.7-.6 0-1.1-.2-1.5-.5-.4-.3-.6-.8-.6-1.4 0-.7.2-1.2.7-1.5.5-.3 1.2-.5 2.2-.5h.8v-.4c0-.3-.1-.5-.2-.7-.1-.2-.4-.3-.7-.3-.3 0-.5.1-.7.2-.2.1-.2.3-.2.6h-1.7c0-.4.1-.7.3-1s.5-.6 1-.7c.5-.1.9-.3 1.4-.3.8 0 1.4.2 1.9.6.5.4.7.9.7 1.7v2.7c0 .6.1 1.1.3 1.4v.1l-1.9-.1zm-1.4-1.2c.3 0 .5-.1.7-.2s.4-.3.5-.4v-1.1h-.6c-.8 0-1.3.3-1.4.9v.1c0 .2.1.4.2.5s.4.2.6.2zm6.2-6.7v1.6h1.1v1.2h-1.1v3.2c0 .2 0 .4.1.5.1.1.3.2.5.2h.5v1.3c-.3.1-.7.2-1 .2-1.2 0-1.8-.6-1.8-1.8v-3.4h-.9v-1.2h.9v-1.6h1.7v-.2zm2-.1c0-.3.1-.5.3-.6.2-.1.4-.2.7-.2s.5.1.7.2c.2.1.3.4.3.6 0 .3-.1.5-.3.6s-.4.2-.7.2-.5-.1-.7-.2c-.2-.1-.3-.3-.3-.6zm1.8 8H563v-6.3h1.7v6.3zm1.2-3.3c0-.6.1-1.2.4-1.7s.6-.9 1-1.1c.4-.2 1-.4 1.6-.4.9 0 1.6.3 2.1.8s.8 1.2.9 2.1v.4c0 1-.3 1.8-.8 2.3s-1.3.9-2.2.9c-.9 0-1.6-.3-2.2-.9-.6-.6-.8-1.3-.8-2.4zm1.7.2c0 .6.1 1.1.3 1.4s.6.5 1 .5.7-.2 1-.5c.2-.3.3-.8.3-1.5 0-.6-.1-1-.3-1.4-.2-.3-.6-.5-1-.5s-.7.2-1 .5c-.2.3-.3.8-.3 1.5zm6.9-3.3l.1.7c.5-.6 1.1-.8 1.8-.8s1.2.2 1.5.6.5 1 .5 1.8v4.1h-1.7v-4.1c0-.4-.1-.6-.2-.8-.2-.2-.4-.2-.8-.2-.5 0-.8.2-1.1.6v4.5h-1.7v-6.3l1.6-.1zm8.8 6.4c-.1-.2-.1-.3-.2-.6-.4.5-.9.7-1.6.7-.6 0-1.1-.2-1.5-.5-.4-.3-.6-.8-.6-1.4 0-.7.2-1.2.7-1.5.5-.3 1.2-.5 2.2-.5h.8v-.4c0-.3-.1-.5-.2-.7-.1-.2-.4-.3-.7-.3-.3 0-.5.1-.7.2-.2.1-.2.3-.2.6h-1.7c0-.4.1-.7.3-1s.5-.6 1-.7c.5-.1.9-.3 1.4-.3.8 0 1.4.2 1.9.6.5.4.7.9.7 1.7v2.7c0 .6.1 1.1.3 1.4v.1l-1.9-.1zm-1.4-1.2c.3 0 .5-.1.7-.2s.4-.3.5-.4v-1.1h-.6c-.8 0-1.3.3-1.4.9v.1c0 .2.1.4.2.5.1.1.4.2.6.2zm6 1.2h-1.7v-9h1.7v9zM25 305.8h-2.4v-9.1l-2.8.9v-1.9l4.9-1.8h.3v11.9zm11.9-4.9c0 1.6-.3 2.9-1 3.8-.7.9-1.7 1.3-3 1.3s-2.3-.4-3-1.3c-.7-.9-1-2.1-1.1-3.7v-2.2c0-1.7.3-2.9 1-3.8.7-.9 1.7-1.3 3-1.3s2.3.4 3 1.3c.7.9 1 2.1 1.1 3.7v2.2zm-2.4-2.4c0-1-.1-1.7-.4-2.2s-.7-.7-1.3-.7-1 .2-1.2.6-.4 1.1-.4 2v2.9c0 1 .1 1.7.4 2.2s.7.7 1.3.7c.6 0 1-.2 1.3-.7.3-.5.4-1.1.4-2.1l-.1-2.7zm12 2.4c0 1.6-.3 2.9-1 3.8s-1.7 1.3-3 1.3-2.3-.4-3-1.3-1-2.1-1.1-3.7v-2.2c0-1.7.3-2.9 1-3.8.7-.9 1.7-1.3 3-1.3s2.3.4 3 1.3c.7.9 1 2.1 1.1 3.7v2.2zm-2.4-2.4c0-1-.1-1.7-.4-2.2-.3-.5-.7-.7-1.3-.7-.6 0-1 .2-1.2.6-.2.4-.4 1.1-.4 2v2.9c0 1 .1 1.7.4 2.2.3.5.7.7 1.3.7.6 0 1-.2 1.3-.7s.4-1.1.4-2.1v-2.7h-.1zm4.2 6.2c0-.4.1-.7.4-.9.3-.2.6-.4 1-.4s.7.1 1 .4c.3.2.4.5.4.9s-.1.7-.4.9c-.3.2-.6.3-1 .3s-.7-.1-1-.3c-.3-.3-.4-.6-.4-.9zm12.7-3.8c0 1.6-.3 2.9-1 3.8s-1.7 1.3-3 1.3-2.3-.4-3-1.3-1-2.1-1.1-3.7v-2.2c0-1.7.3-2.9 1-3.8.7-.9 1.7-1.3 3-1.3s2.3.4 3 1.3c.7.9 1 2.1 1.1 3.7v2.2zm-2.4-2.4c0-1-.1-1.7-.4-2.2-.3-.5-.7-.7-1.3-.7-.6 0-1 .2-1.2.6-.3.4-.4 1.1-.4 2v2.9c0 1 .1 1.7.4 2.2.3.5.7.7 1.3.7.6 0 1-.2 1.3-.7s.4-1.1.4-2.1v-2.7h-.1zm12 2.4c0 1.6-.3 2.9-1 3.8s-1.7 1.3-3 1.3-2.3-.4-3-1.3-1-2.1-1.1-3.7v-2.2c0-1.7.3-2.9 1-3.8.7-.9 1.7-1.3 3-1.3s2.3.4 3 1.3c.7.9 1 2.1 1.1 3.7v2.2zm-2.4-2.4c0-1-.1-1.7-.4-2.2s-.7-.7-1.3-.7c-.6 0-1 .2-1.2.6-.3.4-.4 1.1-.4 2v2.9c0 1 .1 1.7.4 2.2s.7.7 1.3.7c.6 0 1-.2 1.3-.7.3-.5.4-1.1.4-2.1l-.1-2.7zm3.9-2.3c0-.7.2-1.3.7-1.8s1.1-.7 1.9-.7c.8 0 1.4.2 1.9.7s.7 1.1.7 1.8v.6c0 .7-.2 1.3-.7 1.8s-1.1.7-1.9.7c-.8 0-1.4-.2-1.9-.7s-.7-1.1-.7-1.8v-.6zm1.6.6c0 .3.1.6.3.8.2.2.4.3.7.3.3 0 .5-.1.7-.3.2-.2.3-.5.3-.8v-.6c0-.3-.1-.6-.3-.8-.2-.2-.4-.3-.7-.3-.3 0-.5.1-.7.3s-.3.5-.3.8v.6zm1.5 8.1l-1.2-.6 5.8-9.3 1.2.6-5.8 9.3zm2.6-2c0-.7.2-1.3.7-1.8s1.1-.7 1.9-.7c.8 0 1.4.2 1.9.7.5.4.7 1.1.7 1.8v.6c0 .7-.2 1.3-.7 1.8-.5.4-1.1.7-1.9.7-.8 0-1.4-.2-1.9-.7s-.7-1.1-.7-1.8v-.6zm1.6.7c0 .3.1.6.3.8.2.2.4.3.7.3.7 0 1-.4 1-1.1v-.6c0-.3-.1-.6-.3-.8s-.4-.3-.7-.3c-.3 0-.6.1-.7.3-.2.2-.3.5-.3.8v.6z" fill="#36D56C"/><path d="M129.9 16.5h-1.2V2.4h1.2v14.1zM140.4 9c-1.3-.4-2.3-.9-2.9-1.4-.6-.6-.9-1.3-.9-2.1 0-.9.4-1.7 1.1-2.3.8-.6 1.7-.9 2.9-.9.8 0 1.5.2 2.2.5.6.3 1.1.8 1.5 1.3.4.6.5 1.2.5 1.8h-1.6c0-.7-.2-1.3-.7-1.7s-1.1-.6-1.9-.6-1.4.2-1.8.5c-.4.3-.7.8-.7 1.4 0 .5.2.9.6 1.2.4.3 1.1.6 2.1.9 1 .3 1.8.6 2.3.9.6.3 1 .7 1.2 1.2.3.4.4 1 .4 1.6 0 1-.4 1.7-1.1 2.3-.8.6-1.8.9-3 .9-.8 0-1.6-.2-2.3-.5s-1.3-.7-1.6-1.3c-.4-.5-.6-1.2-.6-1.9h1.6c0 .7.3 1.3.8 1.7.5.4 1.2.6 2.1.6.8 0 1.5-.2 1.9-.5.4-.3.7-.8.7-1.4s-.2-1-.6-1.4c-.4-.2-1.1-.5-2.2-.8zm9.8 5.5c-1.2 0-2.2-.4-2.9-1.2-.8-.8-1.1-1.8-1.1-3.2v-.2c0-.9.2-1.7.5-2.4s.8-1.2 1.4-1.6c.6-.4 1.3-.6 2-.6 1.2 0 2 .4 2.7 1.1.6.8 1 1.8 1 3.3v.6h-6c0 .9.3 1.6.8 2.1s1.1.8 1.9.8c.5 0 1-.1 1.4-.3.4-.2.7-.5 1-.9l.9.7c-1 1.2-2.1 1.8-3.6 1.8zm-.1-7.9c-.6 0-1.1.2-1.5.7-.4.5-.7 1.1-.8 1.9h4.4V9c0-.8-.3-1.4-.6-1.8-.4-.4-.9-.6-1.5-.6zm9.6.2c-.2 0-.5-.1-.7-.1-1 0-1.7.4-2 1.3v6.3h-1.5V5.5h1.5v1c.5-.8 1.2-1.2 2.1-1.2.3 0 .5 0 .7.1l-.1 1.4zm4.5 5.5l2.2-6.8h1.5l-3.2 8.8h-1.2l-3.2-8.8h1.5l2.4 6.8zm5.2-9.2c0-.2.1-.5.2-.6.2-.2.4-.3.7-.3s.5.1.7.3.2.4.2.6c0 .2-.1.4-.2.6-.2.2-.4.2-.7.2s-.5-.1-.7-.2c-.1-.1-.2-.3-.2-.6zm1.6 11.2h-1.5V5.5h1.5v8.8zm6-1c.5 0 1-.2 1.4-.5.4-.3.6-.7.7-1.2h1.4c0 .5-.2 1-.5 1.4-.3.4-.8.8-1.3 1.1-.5.3-1.1.4-1.7.4-1.2 0-2.2-.4-2.9-1.2-.7-.8-1.1-1.9-1.1-3.3v-.3c0-.9.2-1.6.5-2.3s.8-1.2 1.4-1.6c.6-.4 1.3-.6 2.1-.6 1 0 1.8.3 2.5.9.7.6 1 1.4 1.1 2.3h-1.4c0-.6-.3-1-.6-1.4-.4-.4-.9-.6-1.4-.6-.8 0-1.4.3-1.8.8-.4.6-.6 1.4-.6 2.4v.3c0 1 .2 1.8.6 2.4.2.7.8 1 1.6 1zm8.9 1.2c-1.2 0-2.2-.4-2.9-1.2-.8-.8-1.1-1.8-1.1-3.2v-.2c0-.9.2-1.7.5-2.4s.8-1.2 1.4-1.6c.6-.4 1.3-.6 2-.6 1.2 0 2 .4 2.7 1.1.6.8 1 1.8 1 3.3v.6h-6c0 .9.3 1.6.8 2.1s1.1.8 1.9.8c.5 0 1-.1 1.4-.3.4-.2.7-.5 1-.9l.9.7c-1 1.2-2.1 1.8-3.6 1.8zm-.2-7.9c-.6 0-1.1.2-1.5.7-.4.4-.7 1.1-.8 1.9h4.4V9c0-.8-.3-1.4-.6-1.8-.4-.4-.9-.6-1.5-.6zm14.7 5.4c0-.4-.2-.7-.5-1-.3-.2-.8-.4-1.6-.6s-1.4-.4-1.8-.6c-.5-.2-.8-.5-1-.8s-.3-.7-.3-1.1c0-.7.3-1.3.9-1.8.6-.5 1.4-.8 2.4-.8s1.8.3 2.4.8c.6.5.9 1.2.9 2h-1.5c0-.4-.2-.8-.5-1.1s-.8-.5-1.3-.5c-.6 0-1 .1-1.3.4-.3.2-.5.6-.5.9 0 .4.1.6.4.8.3.2.8.4 1.6.5.8.1 1.4.4 1.8.6.4.2.8.5 1 .8.2.3.3.7.3 1.2 0 .8-.3 1.4-.9 1.9-.6.5-1.5.7-2.5.7-.7 0-1.3-.1-1.9-.4-.5-.3-1-.6-1.3-1.1-.3-.5-.5-.9-.5-1.5h1.5c0 .5.2.9.6 1.2s.9.4 1.5.4 1-.1 1.4-.3c.5.1.7-.2.7-.6zm5.5-8.7v2.1h1.7v1.2h-1.7v5.5c0 .4.1.6.2.8.1.2.4.3.8.3.2 0 .4 0 .7-.1v1.2c-.4.1-.8.2-1.2.2-.7 0-1.2-.2-1.5-.6-.3-.4-.5-1-.5-1.7V6.6h-1.6V5.5h1.6V3.3h1.5zm8.9 11c-.1-.2-.2-.5-.2-.9-.7.7-1.5 1.1-2.5 1.1-.9 0-1.6-.2-2.1-.7-.6-.5-.8-1.1-.8-1.9 0-.9.4-1.6 1.1-2.1s1.7-.8 3-.8h1.5v-.7c0-.5-.2-.9-.5-1.3s-.8-.5-1.4-.5c-.5 0-1 .1-1.4.4-.4.3-.5.6-.5 1h-1.5c0-.4.2-.9.5-1.3s.7-.7 1.3-1c.5-.2 1.1-.4 1.8-.4 1 0 1.8.3 2.4.8.6.5.9 1.2.9 2.1v4.1c0 .8.1 1.5.3 1.9v.1l-1.9.1zm-2.5-1.1c.5 0 .9-.1 1.3-.4.4-.2.7-.6.9-1V10h-1.2c-1.9 0-2.8.5-2.8 1.6 0 .5.2.8.5 1.1.4.3.8.5 1.3.5zm8.2-9.9v2.1h1.7v1.2h-1.7v5.5c0 .4.1.6.2.8.1.2.4.3.8.3.2 0 .4 0 .7-.1v1.2c-.4.1-.8.2-1.2.2-.7 0-1.2-.2-1.5-.6-.3-.4-.5-1-.5-1.7V6.6h-1.6V5.5h1.6V3.3h1.5zm8.9 10.2c-.6.7-1.5 1-2.6 1-.9 0-1.7-.3-2.2-.8s-.7-1.4-.7-2.4V5.5h1.5v5.7c0 1.3.5 2 1.6 2 1.2 0 1.9-.4 2.3-1.3V5.5h1.5v8.8h-1.4v-.8zm8.9-1.5c0-.4-.2-.7-.5-1-.3-.2-.8-.4-1.6-.6-.8-.2-1.4-.4-1.8-.6-.4-.2-.8-.5-1-.8-.2-.3-.3-.7-.3-1.1 0-.7.3-1.3.9-1.8.6-.5 1.4-.8 2.4-.8s1.8.3 2.4.8.9 1.2.9 2h-1.5c0-.4-.2-.8-.5-1.1-.3-.3-.8-.5-1.3-.5-.6 0-1 .1-1.3.4-.3.2-.5.6-.5.9 0 .4.1.6.4.8.3.2.8.4 1.6.5.8.2 1.4.4 1.8.6.4.2.8.5 1 .8.2.3.3.7.3 1.2 0 .8-.3 1.4-.9 1.9s-1.5.7-2.5.7c-.7 0-1.3-.1-1.9-.4-.5-.3-1-.6-1.3-1.1s-.5-.9-.5-1.5h1.5c0 .5.2.9.6 1.2.4.3.9.4 1.5.4s1-.1 1.4-.3c.5.1.7-.2.7-.6z" fill="#738199"/><path fill="#EDF2F7" d="M.2 49.9h594v78.5H.2z"/><path fill="#738199" d="M224.2 81.9c0 1.1-.9 2-2 2h-149c-1.1 0-2-.9-2-2v-6c0-1.1.9-2 2-2h149c1.1 0 2 .9 2 2v6z"/><path fill="#B2BAB9" d="M457.2 102.9c0 1.1-.9 2-2 2h-382c-1.1 0-2-.9-2-2v-6c0-1.1.9-2 2-2h382c1.1 0 2 .9 2 2v6z"/><path fill="#738199" d="M38.9 97.7c.9 0 1.6.3 2.1.8s.8 1.2.8 1.9c0 .8-.3 1.4-.8 1.9s-1.2.8-2.1.8c-.8 0-1.5-.3-2.1-.8-.5-.5-.8-1.1-.8-1.9s.3-1.4.8-1.9c.6-.6 1.3-.8 2.1-.8zm2.1-2.8h-4.2L36.2 77h5.4L41 94.9z"/><circle fill="#36D56C" cx="6.1" cy="300.7" r="6.1"/><path d="M24.8 207.1c-.6.6-1.3.9-2.2.9-1.1 0-1.9-.4-2.5-1.1-.6-.7-.9-1.7-.9-2.9 0-.8.2-1.5.5-2.1.3-.6.8-1.2 1.4-1.5.6-.4 1.3-.5 2.1-.5s1.5.2 2.1.6c.6.4 1.1 1 1.4 1.7.3.7.5 1.6.5 2.5v.9c0 2-.5 3.5-1.5 4.7-1 1.1-2.4 1.7-4.2 1.8h-.6v-2h.5c2.1-.2 3.2-1.2 3.4-3zm-1.6-.9c.4 0 .7-.1 1-.3.3-.2.5-.4.6-.7v-1c0-.8-.2-1.4-.5-1.9-.3-.4-.7-.7-1.2-.7s-.9.2-1.2.7c-.3.4-.5 1-.5 1.6 0 .6.1 1.2.4 1.6.4.5.9.7 1.4.7zm11.2.9c-.6.6-1.3.9-2.2.9-1.1 0-1.9-.4-2.5-1.1-.6-.7-.9-1.7-.9-2.9 0-.8.2-1.5.5-2.1.3-.6.8-1.2 1.4-1.5.6-.4 1.3-.5 2.1-.5s1.5.2 2.1.6c.6.4 1.1 1 1.4 1.7s.5 1.6.5 2.5v.9c0 2-.5 3.5-1.5 4.7-1 1.1-2.4 1.7-4.2 1.8h-.6v-2h.5c2.1-.2 3.2-1.2 3.4-3zm-1.6-.9c.4 0 .7-.1 1-.3s.5-.4.6-.7v-1c0-.8-.2-1.4-.5-1.9-.3-.4-.7-.7-1.2-.7s-.9.2-1.2.7c-.3.4-.5 1-.5 1.6 0 .6.1 1.2.4 1.6.4.5.9.7 1.4.7zm5.9 4.5c0-.4.1-.7.4-.9.3-.2.6-.4 1-.4s.7.1 1 .4c.3.2.4.5.4.9s-.1.7-.4.9c-.3.2-.6.3-1 .3s-.7-.1-1-.3c-.3-.3-.4-.6-.4-.9zm5-4.7l.7-6.1H51v2h-4.7l-.3 2.6c.6-.3 1.2-.4 1.8-.4 1.1 0 2 .4 2.7 1.1s1 1.7 1 3c0 .8-.2 1.5-.5 2.1-.3.6-.8 1.1-1.4 1.4-.6.3-1.3.5-2.1.5-.7 0-1.4-.1-2-.4-.6-.3-1.1-.7-1.5-1.2-.4-.5-.5-1.1-.6-1.8h2.3c0 .5.2.9.5 1.2.3.3.7.4 1.2.4s.9-.2 1.2-.6c.3-.4.4-.9.4-1.6s-.2-1.2-.5-1.6c-.3-.4-.8-.5-1.4-.5-.6 0-1 .1-1.4.4l-.2.2-1.8-.7zm16.2 1.3h1.3v1.9h-1.3v2.6h-2.4v-2.6h-4.9l-.1-1.5 5-7.8h2.4v7.4zm-5 0h2.6v-4.2l-.2.3-2.4 3.9zm7.6-5.1c0-.7.2-1.3.7-1.8s1.1-.7 1.9-.7 1.4.2 1.9.7.7 1.1.7 1.8v.6c0 .7-.2 1.3-.7 1.8s-1.1.7-1.9.7-1.4-.2-1.9-.7-.7-1.1-.7-1.8v-.6zm1.6.6c0 .3.1.6.3.8.2.2.4.3.7.3s.5-.1.7-.3c.2-.2.3-.5.3-.8v-.6c0-.3-.1-.6-.3-.8s-.4-.3-.7-.3-.5.1-.7.3c-.2.2-.3.5-.3.8v.6zm1.5 8.1l-1.2-.6 5.8-9.3 1.2.6-5.8 9.3zm2.6-2c0-.7.2-1.3.7-1.8s1.1-.7 1.9-.7 1.4.2 1.9.7c.5.4.7 1.1.7 1.8v.6c0 .7-.2 1.3-.7 1.8-.5.4-1.1.7-1.9.7s-1.4-.2-1.9-.7-.7-1.1-.7-1.8v-.6zm1.6.7c0 .3.1.6.3.8s.4.3.7.3c.7 0 1-.4 1-1.1v-.6c0-.3-.1-.6-.3-.8s-.4-.3-.7-.3-.6.1-.7.3c-.2.2-.3.5-.3.8v.6z" fill="#36D56C"/><circle fill="#36D56C" cx="6.1" cy="206.7" r="6.1"/><path d="M21.2 2.3v8.3c0 .9-.2 1.8-.6 2.5-.4.7-1 1.2-1.7 1.6-.8.4-1.6.5-2.7.5-1.6 0-2.8-.4-3.7-1.2-.9-.8-1.3-1.9-1.4-3.3V2.3h3.1v8.5c0 1.4.7 2.1 1.9 2.1.6 0 1.1-.2 1.4-.5.3-.4.5-.9.5-1.7V2.3h3.2zm10.9 8.1c0 1.5-.3 2.6-1 3.5-.7.9-1.6 1.3-2.7 1.3-.9 0-1.6-.3-2.1-1v4.4h-3v-13h2.8l.1.9c.6-.7 1.3-1.1 2.2-1.1 1.2 0 2.1.4 2.7 1.3.6.9 1 2 1 3.6v.1zm-3-.2c0-1.7-.5-2.5-1.5-2.5-.7 0-1.2.3-1.4.8v3.7c.3.5.7.8 1.4.8.9 0 1.4-.8 1.5-2.4v-.4zm8-7v2.4h1.6v2h-1.6v4.3c0 .4.1.6.2.7.1.1.4.2.8.2.3 0 .5 0 .7-.1V15c-.5.2-1.1.3-1.7.3-1 0-1.8-.2-2.3-.7s-.7-1.2-.7-2.2V7.6h-1.2v-2h1.2V3.2h3zm3-.1c0-.4.2-.8.5-1 .3-.3.7-.4 1.2-.4s.9.1 1.2.4c.3.3.5.6.5 1s-.2.8-.5 1c-.3.3-.7.4-1.2.4s-.9-.1-1.2-.4c-.4-.2-.5-.6-.5-1zM43.2 15h-3V5.6h3V15zm4.9-9.4l.1 1.1c.7-.9 1.6-1.3 2.7-1.3 1.2 0 2 .5 2.4 1.4.6-1 1.6-1.4 2.8-1.4 1.9 0 2.9 1.2 3 3.5V15h-3V9c0-.5-.1-.8-.2-1.1-.2-.2-.5-.3-.9-.3-.6 0-1 .3-1.3.8V15h-3V9c0-.5-.1-.9-.2-1.1-.2-.2-.5-.3-.9-.3-.6 0-1 .3-1.3.8V15h-3V5.6h2.8zm17.7 9.6c-1.5 0-2.6-.4-3.5-1.3-.9-.9-1.3-2-1.3-3.4v-.2c0-1 .2-1.8.5-2.6.3-.7.8-1.3 1.5-1.7.7-.4 1.5-.6 2.5-.6 1.3 0 2.4.4 3.2 1.2.8.8 1.2 2 1.2 3.5v1.1H64c.1.5.3.9.7 1.3.4.3.8.5 1.4.5.9 0 1.7-.3 2.2-1l1.3 1.6c-.4.5-.9.9-1.6 1.2-.7.3-1.5.4-2.2.4zm-.4-7.5c-.9 0-1.4.6-1.5 1.7h3v-.3c0-.5-.1-.8-.4-1.1-.2-.2-.6-.3-1.1-.3zm10.9 2.8h-1.7V15h-3.1V2.3h5c1.5 0 2.7.3 3.5 1 1 .7 1.4 1.6 1.4 2.8 0 .9-.2 1.6-.5 2.2-.4.6-.9 1.1-1.7 1.4l2.7 5.1v.2h-3.3l-2.3-4.5zm-1.7-2.3h1.9c.6 0 1-.2 1.3-.5s.4-.7.4-1.3c0-.5-.1-1-.4-1.3-.3-.3-.7-.5-1.3-.5h-1.9v3.6zm8.4 2c0-.9.2-1.8.6-2.5.4-.7.9-1.3 1.6-1.7.7-.4 1.5-.6 2.4-.6 1.4 0 2.5.4 3.4 1.3.8.9 1.2 2.1 1.2 3.6v.1c0 1.5-.4 2.7-1.2 3.5-.8.9-1.9 1.3-3.3 1.3-1.3 0-2.4-.4-3.3-1.2-.8-.8-1.3-1.9-1.3-3.3l-.1-.5zm2.9.2c0 .9.1 1.5.4 1.9.3.4.7.6 1.2.6 1.1 0 1.6-.8 1.6-2.4v-.3c0-1.7-.5-2.5-1.6-2.5-1 0-1.5.7-1.6 2.2v.5zm16.6 0c0 1.6-.3 2.7-1 3.6-.6.8-1.5 1.3-2.7 1.3-1 0-1.7-.4-2.3-1.1l-.1 1h-2.6V1.6h3v4.7c.5-.6 1.3-.9 2.1-.9 1.2 0 2.1.4 2.7 1.3.6.8 1 2 1 3.6l-.1.1zm-3-.2c0-.9-.1-1.6-.4-1.9-.2-.4-.6-.6-1.1-.6-.7 0-1.1.3-1.4.8v3.8c.3.5.7.8 1.4.8s1.1-.3 1.3-1c.2-.5.2-1.1.2-1.9zm4.2 0c0-.9.2-1.8.6-2.5s.9-1.3 1.6-1.7c.7-.4 1.5-.6 2.4-.6 1.4 0 2.5.4 3.4 1.3.8.9 1.2 2.1 1.2 3.6v.1c0 1.5-.4 2.7-1.2 3.5-.8.8-1.9 1.3-3.3 1.3-1.3 0-2.4-.4-3.3-1.2-.8-.8-1.3-1.9-1.3-3.3l-.1-.5zm3 .2c0 .9.1 1.5.4 1.9.3.4.7.6 1.2.6 1.1 0 1.6-.8 1.6-2.4v-.3c0-1.7-.5-2.5-1.6-2.5-1 0-1.5.7-1.6 2.2v.5zm11.2-7.2v2.4h1.6v2h-1.6v4.3c0 .4.1.6.2.7.1.1.4.2.8.2.3 0 .5 0 .7-.1V15c-.5.2-1.1.3-1.7.3-1 0-1.8-.2-2.3-.7s-.7-1.2-.7-2.2V7.6h-1.2v-2h1.2V3.2h3z" fill="#121E35"/><circle fill="#3BD771" cx="3.5" cy="11.8" r="3.2"/><path fill="#36D56C" d="M594.2 22.8c0 1.1-.9 2-2 2H474.3c-1.1 0-2-.9-2-2V2c0-1.1.9-2 2-2h117.9c1.1 0 2 .9 2 2v20.8z"/><path opacity=".5" fill="#FFF" d="M574.9 14.9c0 1.1-.9 2-2 2h-76.5c-1.1 0-2-.9-2-2v-6c0-1.1.9-2 2-2h76.5c1.1 0 2 .9 2 2v6z"/></g></switch><script xmlns=""/></svg>